<?xml version="1.0" encoding="UTF-8"?>
<svg width="30px" height="30px" viewBox="0 0 30 30" version="1.1" xmlns="http://www.w3.org/2000/svg" xmlns:xlink="http://www.w3.org/1999/xlink">
    <!-- Generator: Sketch 52.3 (67297) - http://www.bohemiancoding.com/sketch -->
    <title>Shape</title>
    <desc>Created with Sketch.</desc>
    <g id="Page-3" stroke="none" stroke-width="1" fill="none" fill-rule="evenodd">
        <g id="iPhone-XS-Copy" transform="translate(-309.000000, -118.000000)" fill="#FFFFFF" fill-rule="nonzero">
            <g id="Group-2" transform="translate(309.000000, 118.000000)">
                <path d="M17.4144483,15.5 L20.6028568,18.6894108 C21.1315171,19.2177943 21.1317415,20.0746976 20.6033579,20.6033579 C20.0749744,21.1320182 19.2180711,21.1322426 18.6894108,20.6038591 L15.5,17.4124436 L12.3105892,20.6018545 C11.7822057,21.1305147 10.9253024,21.1307391 10.3966421,20.6023556 C9.86798177,20.0739721 9.86775738,19.2170687 10.3961409,18.6884084 L13.5875563,15.5 L10.3981455,12.3105892 C9.86948524,11.7822057 9.86926087,10.9253024 10.3976444,10.3966421 C10.9260279,9.86798177 11.7829312,9.86775738 12.3115915,10.3961409 L15.5,13.5875563 L18.6894108,10.3981455 C19.2177943,9.86948524 20.0746976,9.86926088 20.6033579,10.3976444 C21.1320182,10.9260279 21.1322426,11.7829312 20.6038591,12.3115916 L17.4124437,15.5 L17.4144483,15.5 Z M25.606372,4.39362796 C31.4645427,10.2517986 31.4645427,19.7482015 25.606372,25.606372 C19.7482014,31.4645427 10.2517986,31.4645427 4.39362795,25.606372 C-1.46454265,19.7482014 -1.46454265,10.2517985 4.39362795,4.39362796 C10.2517986,-1.46454265 19.7482014,-1.46454265 25.606372,4.39362796 Z M24.1916145,5.80820417 C19.1157497,0.730598609 10.8842503,0.730598609 5.80753583,5.80820417 C0.730821391,10.8841104 0.730821391,19.1156771 5.80753583,24.1924331 C10.8842503,29.269189 19.1157497,29.269189 24.1924642,24.1924331 C29.2691786,19.1156771 29.2691786,10.8841104 24.1924642,5.80735453 L24.1916145,5.80820417 Z" id="Shape"></path>
            </g>
        </g>
    </g>
</svg>